# xmcd
#
# Track frame offsets:
#	150
#	14680
#	33928
#	49393
#	66874
#	81269
#
# Disc length: 1267 seconds
#
# Revision: 1
# Processed by: cddbd v1.5.2PL0 Copyright (c) Steve Scherf et al.
# Submitted via: audiograbber 1.83.01
#
DISCID=4d04f106
DTITLE=Earnest Lovers - Sing Sad Songs
DYEAR=2015
DGENRE=Country
TTITLE0=San Andreas' Fault
TTITLE1=Lights Of Anita
TTITLE2=Angel Of Sunrise
TTITLE3=Still Missing You
TTITLE4=No Songs Came By Today
TTITLE5=Everybody's Trying To Be My Pal
EXTD=earnestlovers.com
EXTT0=
EXTT1=
EXTT2=
EXTT3=
EXTT4=
EXTT5=
PLAYORDER=
